<?xml version="1.0" standalone="no"?>
<!DOCTYPE svg PUBLIC "-//W3C//DTD SVG 20010904//EN"
 "http://www.w3.org/TR/2001/REC-SVG-20010904/DTD/svg10.dtd">
<svg version="1.0" xmlns="http://www.w3.org/2000/svg"
 width="1280.000000pt" height="960.000000pt" viewBox="0 0 1280.000000 960.000000"
 preserveAspectRatio="xMidYMid meet">
<metadata>
Created by potrace 1.15, written by Peter Selinger 2001-2017
</metadata>
<g transform="translate(0.000000,960.000000) scale(0.100000,-0.100000)"
fill="#000000" stroke="none">
<path d="M4144 8183 c-13 -14 -15 -29 -11 -80 8 -80 -21 -163 -67 -198 -51
-38 -148 -83 -217 -101 -35 -9 -70 -21 -76 -26 -20 -16 -16 -44 10 -74 23 -26
24 -26 192 -32 292 -10 558 -7 582 6 48 26 42 96 -9 107 -117 24 -266 106
-306 169 -23 36 -26 53 -28 130 -2 73 -6 92 -20 103 -23 17 -29 16 -50 -4z"/>
<path d="M8560 7870 c-8 -5 -44 -10 -78 -10 -66 0 -166 -23 -192 -44 -8 -7
-35 -18 -60 -25 -64 -19 -116 -47 -163 -90 -48 -42 -117 -92 -197 -140 -30
-18 -91 -70 -135 -115 -45 -44 -95 -94 -113 -110 -69 -63 -124 -206 -142 -366
-6 -57 -16 -113 -22 -124 -8 -15 -7 -22 5 -31 14 -10 14 -14 -2 -41 -16 -27
-21 -49 -38 -167 -6 -44 17 -135 51 -205 20 -40 24 -68 30 -191 3 -79 8 -146
11 -149 3 -3 5 2 5 11 0 29 50 124 65 124 8 0 15 -6 15 -13 0 -8 -6 -11 -14
-8 -11 4 -18 -7 -26 -38 -6 -23 -15 -55 -20 -70 -5 -15 -7 -37 -5 -48 2 -11
-2 -20 -8 -20 -7 0 -4 -5 6 -11 9 -5 17 -17 17 -24 0 -8 7 -15 15 -15 16 0 59
-85 51 -99 -3 -5 1 -14 9 -21 8 -7 15 -19 15 -26 0 -8 4 -14 9 -14 5 0 11 -7
14 -14 4 -11 1 -13 -10 -9 -13 5 -15 2 -11 -15 3 -11 1 -23 -6 -26 -6 -2 3 -5
19 -6 26 0 28 -2 12 -11 -10 -6 -27 -9 -38 -6 -10 3 -19 1 -19 -5 0 -5 -6 -6
-12 -2 -7 4 -5 -2 6 -14 20 -23 78 -46 98 -40 9 3 13 46 15 154 3 178 6 216
21 269 6 22 14 71 18 108 4 37 11 70 15 73 5 3 9 13 9 23 0 19 47 113 60 121
5 3 14 18 19 33 6 16 15 25 21 22 5 -3 10 3 10 13 0 11 7 25 15 32 8 7 15 17
15 22 0 5 7 16 15 25 8 8 12 19 9 25 -4 6 1 8 14 4 15 -5 21 -1 26 19 4 14 10
24 14 22 8 -5 205 18 242 28 14 4 49 7 79 7 44 0 54 3 58 19 5 20 23 27 23 9
0 -6 16 -2 35 9 24 13 51 18 85 16 28 -2 50 1 50 6 0 5 10 9 21 9 12 0 41 12
65 27 32 21 42 33 38 45 -3 10 -1 18 5 18 6 0 11 7 11 15 0 8 5 15 10 15 6 0
14 8 17 18 7 18 53 66 53 54 0 -4 5 0 10 8 8 11 12 12 18 3 9 -14 26 -5 35 19
3 10 19 21 34 24 31 8 93 43 93 52 0 4 26 7 57 7 32 0 73 4 90 8 29 8 34 6 44
-16 8 -19 19 -25 38 -24 21 2 26 -2 24 -20 -2 -16 2 -21 11 -17 21 8 39 -31
26 -55 -5 -11 -9 -35 -9 -53 l2 -33 6 34 6 34 14 -26 c11 -21 22 -27 47 -27
26 0 33 -5 38 -27 8 -30 -8 -46 -38 -37 -15 5 -18 3 -13 -11 4 -9 7 -19 7 -21
0 -2 11 -4 25 -4 19 0 23 -4 18 -17 -4 -11 -8 -13 -11 -5 -5 15 -22 5 -22 -13
0 -7 6 -20 13 -27 8 -7 16 -44 19 -82 4 -40 11 -72 19 -76 19 -12 20 -40 1
-40 -15 -1 -14 -3 2 -15 11 -8 16 -15 12 -15 -12 0 -50 22 -57 33 -4 5 -18 11
-32 12 -14 2 -31 6 -38 11 -15 9 -301 8 -331 -2 -15 -4 -18 -3 -13 7 6 9 3 11
-9 6 -10 -4 -20 -7 -22 -7 -2 0 -4 -7 -4 -15 0 -8 -5 -15 -11 -15 -5 0 -7 5
-4 10 3 6 1 10 -4 10 -6 0 -11 -5 -11 -11 0 -5 -4 -8 -9 -4 -5 3 -12 1 -16 -5
-4 -6 -10 -8 -15 -5 -5 3 -16 -5 -24 -17 -9 -12 -16 -18 -16 -13 0 5 -5 4 -12
-3 -7 -7 -20 -12 -29 -12 -12 0 -16 -6 -12 -19 4 -17 0 -19 -23 -17 -21 2 -30
9 -32 25 -3 17 -10 21 -42 21 -23 0 -45 7 -55 17 -14 14 -18 14 -26 2 -7 -11
-9 -11 -9 -1 0 19 -23 39 -38 34 -6 -2 -12 2 -12 8 0 6 -6 10 -12 8 -7 -3 -21
5 -31 16 -15 17 -18 17 -13 4 4 -15 2 -16 -22 -6 -15 7 -35 19 -45 27 -14 12
-22 13 -37 3 -14 -9 -20 -8 -23 1 -4 9 -6 9 -6 0 -1 -7 -12 -13 -25 -13 -14 0
-37 -5 -52 -10 -24 -9 -25 -9 -14 5 10 12 10 15 -3 15 -9 0 -19 -4 -22 -10 -3
-5 -13 -10 -21 -10 -8 0 -13 4 -10 8 3 5 -18 7 -45 6 -36 -1 -57 -8 -74 -24
-12 -12 -29 -23 -36 -24 -32 -6 -69 -30 -65 -42 3 -7 -9 -18 -25 -24 -24 -10
-27 -15 -18 -27 10 -11 7 -18 -10 -34 l-22 -21 26 -20 c14 -11 23 -23 20 -28
-7 -11 15 -60 27 -60 4 0 8 5 8 10 0 6 3 9 8 8 4 -1 21 6 39 15 18 9 42 17 55
16 15 0 18 -3 8 -6 -8 -3 -33 -20 -55 -38 -22 -18 -51 -35 -63 -40 l-24 -7 21
-19 c16 -15 29 -18 56 -13 19 3 47 3 62 -1 l28 -7 -35 -19 -35 -19 50 5 c45 6
48 5 32 -9 -18 -14 -18 -14 0 -20 29 -9 200 -23 268 -22 33 1 75 8 92 15 42
17 103 7 104 -17 0 -9 5 -3 10 13 5 17 6 38 3 48 -4 13 0 20 16 24 11 3 19 11
17 17 -2 6 0 22 6 36 6 14 11 38 11 55 1 25 8 33 46 52 37 19 46 20 48 8 2 -9
15 -15 31 -15 19 0 31 -7 39 -22 11 -22 32 -102 37 -143 1 -11 8 -19 15 -17 8
2 10 -3 6 -14 -5 -13 -2 -15 19 -10 14 4 25 2 25 -4 0 -5 17 -17 38 -26 28
-12 67 -16 167 -15 71 1 134 6 139 11 6 6 23 10 39 10 18 0 27 4 24 13 -2 6 3
17 12 24 14 11 14 12 -1 13 -10 0 -18 5 -18 11 0 6 11 8 28 5 61 -12 127 -16
107 -7 -18 9 -17 10 8 10 31 1 38 21 7 21 -11 0 -20 7 -20 15 0 8 -6 15 -14
15 -8 0 -17 4 -20 9 -8 13 37 0 46 -13 7 -11 28 34 28 60 0 8 8 14 18 15 14 0
14 2 -3 9 -21 9 -21 9 11 15 18 4 25 -5 43 -58 12 -34 26 -71 32 -82 20 -44
33 -135 31 -225 l-3 -95 23 25 c56 60 67 85 65 158 -2 74 8 86 19 24 6 -31 8
-34 16 -17 5 13 6 4 2 -25 -3 -25 -8 -61 -10 -80 -2 -19 -6 -46 -9 -60 -3 -14
-7 -41 -10 -61 l-5 -36 48 -6 c26 -4 310 -4 632 -1 322 3 718 5 880 3 371 -3
368 -4 410 8 19 5 55 6 80 2 75 -13 319 -10 343 3 12 6 56 11 97 10 113 -1
496 -3 568 -3 l62 1 0 68 0 69 -227 -2 c-126 -1 -352 1 -503 5 l-275 7 -108
36 c-130 45 -180 47 -267 11 -71 -29 -114 -28 -178 5 -55 27 -116 33 -197 20
-54 -9 -102 -10 -191 -2 -69 6 -146 7 -184 3 -83 -11 -285 12 -357 40 -62 23
-197 28 -415 15 -170 -10 -173 -8 -163 79 4 34 18 82 31 108 27 54 31 96 9
104 -19 8 -11 42 26 111 55 101 82 199 80 289 -1 67 2 88 19 116 27 45 25 56
-15 75 -19 9 -32 20 -29 25 3 4 -1 10 -8 13 -9 4 -12 19 -10 50 3 38 10 49 48
80 55 45 90 91 100 130 7 27 6 29 -9 16 -12 -9 -17 -10 -17 -2 0 23 -22 -2
-41 -45 -19 -42 -32 -57 -56 -60 -8 -2 -9 5 -3 21 5 13 6 25 4 28 -3 3 0 15 6
27 18 34 -4 48 -25 16 -19 -29 -35 -26 -35 7 0 16 3 18 9 9 6 -11 10 -10 15 4
4 10 4 15 0 11 -17 -16 -32 14 -23 46 13 45 12 64 -2 50 -16 -16 -39 8 -33 33
3 11 -4 28 -15 41 -12 12 -21 27 -21 33 0 6 -11 23 -25 38 -14 15 -25 32 -25
38 0 15 -25 36 -33 27 -4 -3 -2 -12 4 -19 7 -8 7 -14 0 -19 -6 -3 -13 7 -17
22 -6 25 -70 123 -80 123 -2 0 -2 -12 1 -27 l6 -28 -18 28 c-10 15 -21 27 -25
27 -5 0 -18 10 -30 23 -34 33 -130 107 -141 107 -5 0 -6 -7 -3 -16 3 -9 2 -12
-4 -9 -6 4 -9 13 -8 22 2 8 -8 22 -22 32 -18 12 -22 12 -15 2 6 -11 4 -13 -8
-8 -9 3 -18 1 -20 -6 -3 -9 -8 -9 -18 1 -7 6 -20 12 -28 12 -9 0 2 -11 24 -25
48 -29 40 -31 -34 -6 -138 46 -220 60 -431 72 -85 5 -168 12 -185 14 -16 3
-37 1 -45 -5z"/>
<path d="M4113 7376 c-36 -9 -71 -10 -115 -4 -39 5 -73 5 -92 -2 -16 -5 -41
-10 -56 -10 -46 0 -70 -37 -70 -107 0 -95 15 -107 132 -110 51 -1 101 -2 111
-3 9 0 23 0 30 0 6 0 48 0 92 0 44 0 107 -1 139 -1 32 0 63 -2 68 -5 16 -10
138 -12 144 -3 3 5 16 9 29 9 17 0 27 9 39 40 25 63 21 114 -12 151 l-27 31
-125 3 c-69 2 -141 8 -160 14 -43 13 -60 13 -127 -3z"/>
<path d="M7499 5935 c-10 -9 -104 -14 -394 -19 -143 -3 -303 -10 -355 -15
-138 -14 -336 -15 -670 -2 -162 6 -307 9 -322 6 -22 -5 -306 -12 -718 -19 -91
-1 -95 -2 -107 -26 -6 -14 -15 -67 -19 -118 -6 -83 -5 -92 11 -98 13 -5 26 2
46 24 28 31 30 32 121 32 51 1 106 2 123 3 24 2 32 -4 43 -27 19 -38 34 -178
23 -208 -10 -27 9 -72 38 -88 27 -14 101 60 101 102 0 16 5 60 11 97 10 62 10
70 -7 88 -11 11 -24 28 -29 38 -6 10 -28 20 -50 24 -47 7 -61 41 -38 89 31 65
109 30 134 -61 19 -66 26 -70 90 -48 46 15 98 19 329 25 151 3 410 3 575 -2
190 -6 313 -5 335 1 48 13 758 15 765 2 3 -5 2 4 -1 20 -4 17 -12 65 -18 108
-6 44 -14 76 -17 72z"/>
<path d="M8405 5890 c-3 -5 -30 -17 -60 -26 -30 -10 -52 -20 -50 -23 10 -9
-58 -31 -77 -25 -12 3 -17 1 -16 -6 3 -12 -19 -22 -74 -34 -16 -4 -28 -13 -28
-21 0 -8 -3 -15 -7 -16 -5 0 -26 -1 -48 -2 -22 -2 -44 -5 -50 -9 -5 -3 -29 -9
-51 -12 -30 -5 -45 -14 -54 -32 -9 -16 -16 -20 -21 -13 -4 7 -6 -12 -5 -42 1
-42 -2 -54 -14 -54 -10 0 -15 10 -14 30 0 17 -1 22 -3 12 -3 -11 -10 -16 -18
-13 -23 8 -27 -12 -11 -46 11 -21 13 -35 6 -42 -14 -14 -13 -20 13 -50 17 -19
22 -35 19 -61 -2 -19 -8 -33 -12 -30 -5 3 -13 -7 -18 -22 -9 -25 -10 -26 -11
-5 -1 12 -6 22 -11 22 -12 0 -2 -52 12 -61 5 -3 10 -16 13 -28 11 -59 103
-203 160 -253 12 -10 15 -17 8 -18 -7 0 -13 5 -13 12 0 6 -3 9 -6 5 -8 -7 27
-67 39 -67 5 0 4 7 -3 15 -7 9 -10 18 -6 22 10 10 16 -1 20 -35 2 -17 11 -38
20 -47 9 -9 16 -24 15 -33 0 -14 -2 -14 -6 -2 -3 8 -14 23 -25 33 -18 18 -19
18 -16 -6 5 -31 27 -59 44 -53 7 2 20 -4 30 -15 16 -18 16 -19 1 -13 -21 8
-22 -9 -2 -30 19 -19 19 -26 -1 -26 -11 0 -14 -6 -9 -22 4 -13 12 -27 18 -33
7 -7 8 -6 3 3 -4 6 -2 12 3 12 6 0 11 -5 11 -11 0 -6 7 -17 15 -25 13 -13 14
-11 8 18 -6 30 -5 32 10 19 15 -11 19 -10 34 8 13 15 25 19 41 15 19 -5 20 -9
10 -22 -11 -13 -10 -15 5 -9 20 7 23 -16 8 -56 -5 -14 -7 -35 -3 -48 5 -20 8
-16 17 26 13 57 39 74 41 26 1 -20 -3 -28 -11 -24 -7 2 -16 0 -20 -6 -3 -6 1
-11 10 -11 9 0 23 -16 31 -37 12 -28 18 -33 25 -22 7 11 9 11 9 -3 0 -10 3
-18 8 -18 18 0 82 -62 75 -73 -4 -7 -8 -15 -8 -19 0 -18 -15 -18 -15 0 0 27
-25 30 -27 4 -1 -13 17 -28 63 -52 36 -18 66 -36 68 -39 6 -9 -16 -36 -38 -48
-19 -10 -18 -11 2 -17 16 -5 22 -15 22 -37 0 -16 5 -29 12 -29 6 0 -4 -13 -22
-30 -18 -16 -28 -30 -22 -30 7 0 12 -5 12 -11 0 -7 -13 -9 -37 -5 -30 4 -33 4
-15 -4 24 -10 30 -29 10 -31 -7 0 -32 -1 -55 -1 -24 0 -43 -4 -43 -9 0 -5 11
-9 25 -9 27 0 33 -18 13 -38 -9 -9 -16 -8 -30 5 -18 16 -19 16 -13 -3 7 -19 6
-19 -9 0 -9 11 -16 26 -16 33 0 7 -6 10 -14 7 -8 -3 -16 4 -20 20 -3 15 -14
26 -22 26 -11 0 -15 -6 -11 -20 3 -11 1 -18 -4 -14 -5 3 -9 12 -9 20 0 8 -4
14 -9 14 -6 0 -22 11 -37 25 -15 14 -29 23 -32 21 -13 -14 -119 73 -172 140
-8 11 -20 26 -27 35 -17 21 -62 199 -73 288 -6 40 -10 140 -11 222 0 82 -3
149 -7 149 -4 0 -30 -33 -58 -73 -67 -95 -115 -201 -129 -281 -6 -35 -7 -37
-21 -20 -13 18 -14 17 -14 -11 0 -38 -16 -144 -25 -167 -4 -10 -11 -18 -17
-18 -5 0 -6 5 -3 10 9 14 -9 12 -24 -2 -7 -7 -3 11 8 40 12 29 25 71 30 92 7
32 6 37 -6 33 -8 -3 -12 -12 -9 -20 3 -8 -5 -24 -19 -37 -18 -17 -21 -26 -13
-34 8 -8 8 -15 -3 -28 -7 -9 -15 -28 -17 -42 -4 -32 -4 -32 -31 -37 -26 -5
-27 9 -1 35 31 31 24 32 -20 2 -21 -15 -39 -32 -40 -39 0 -6 -13 -25 -30 -41
-17 -17 -25 -32 -18 -34 7 -3 0 -20 -17 -46 -33 -50 -42 -49 -21 3 l16 36 -35
-21 c-38 -24 -47 -14 -15 15 16 14 19 26 14 47 -3 18 -1 35 8 45 16 19 99 83
177 136 34 23 46 36 31 31 -42 -11 -152 -68 -177 -91 -8 -7 -26 -20 -42 -29
-16 -9 -36 -30 -45 -45 -10 -16 -21 -29 -27 -29 -5 0 -9 -6 -9 -12 -1 -17 -41
-63 -63 -71 -9 -3 -17 -11 -17 -17 0 -5 -6 -10 -14 -10 -8 0 -17 -12 -20 -27
-4 -16 -9 -36 -13 -47 -3 -12 -1 -16 6 -12 6 4 11 2 11 -4 0 -7 -6 -10 -12 -7
-7 2 -13 11 -13 20 0 9 -5 21 -12 28 -17 17 -53 -7 -53 -36 0 -14 -4 -25 -9
-25 -5 0 -13 -9 -16 -20 -3 -11 -11 -20 -17 -20 -7 0 -9 19 -5 55 5 52 5 54
-14 42 -12 -7 -19 -23 -19 -42 0 -33 -34 -85 -47 -72 -4 5 -1 13 7 18 13 9 13
10 0 6 -8 -2 -26 4 -39 14 -32 26 -42 24 -71 -12 -41 -52 -84 -94 -92 -91 -7
2 -9 -17 -8 -53 1 -12 -25 -32 -30 -24 -5 8 -62 -8 -87 -24 -7 -5 -13 -17 -13
-28 0 -10 -4 -19 -10 -19 -5 0 -10 6 -10 14 0 22 -31 28 -46 9 -13 -18 -15
-23 -18 -43 0 -6 -6 -14 -13 -18 -20 -12 0 -29 40 -34 25 -3 37 0 37 8 0 7 -6
14 -12 17 -10 3 -10 8 1 21 13 16 16 15 38 -5 12 -13 23 -31 23 -41 0 -10 6
-18 14 -18 17 0 10 -37 -10 -61 -8 -9 -11 -19 -7 -22 3 -4 -5 -6 -19 -5 -15 1
-25 8 -24 16 2 26 -24 24 -34 -2 -5 -14 -16 -26 -25 -26 -19 0 -66 40 -59 52
3 4 1 8 -5 8 -5 0 -13 -5 -16 -11 -4 -6 -13 -8 -21 -5 -8 3 -17 -1 -21 -9 -4
-11 -9 -13 -18 -5 -8 7 -36 -5 -96 -41 -46 -28 -93 -60 -105 -70 -23 -22 -44
-80 -44 -125 0 -42 -13 -58 -43 -50 -15 3 -29 1 -34 -7 -16 -20 -34 -78 -43
-141 -5 -32 -13 -63 -18 -68 -14 -14 -1 123 25 267 l6 30 -27 -32 c-33 -39
-45 -99 -56 -278 -8 -133 -8 -130 -5 73 1 116 1 212 -1 212 -8 0 -103 -213
-118 -263 -8 -29 -18 -97 -20 -151 -6 -106 -16 -143 -16 -58 0 59 -16 70 -25
18 -9 -44 -67 -106 -93 -99 -13 3 -25 -3 -35 -17 -36 -52 -138 -27 -175 42 -9
17 -31 47 -47 66 -26 29 -42 36 -116 51 l-86 18 -32 -29 c-24 -22 -41 -28 -76
-28 -45 0 -66 13 -91 55 -8 14 -28 20 -87 26 -67 6 -83 12 -113 38 -19 17 -37
31 -40 31 -17 0 -64 -33 -58 -41 13 -21 -56 -67 -103 -68 -211 -7 -345 -6
-349 0 -3 5 -12 9 -21 9 -9 0 -25 8 -35 17 -16 15 -24 15 -68 4 -35 -9 -54
-10 -69 -2 -11 6 -27 11 -37 11 -9 0 -34 20 -56 45 l-40 45 -72 0 c-57 0 -83
5 -125 25 -45 22 -61 25 -111 19 -32 -3 -70 -4 -84 0 -32 8 -61 68 -46 96 11
20 -9 39 -78 74 -34 17 -55 13 -93 -21 -17 -14 -13 -45 12 -95 14 -27 11 -43
-11 -63 -11 -10 -20 -29 -20 -42 0 -13 -4 -33 -10 -43 -7 -13 -5 -24 8 -40 16
-20 26 -22 137 -21 66 0 133 4 149 9 44 12 98 3 103 -19 3 -11 9 -19 13 -19 5
0 11 -13 15 -30 5 -22 12 -30 29 -30 12 0 26 -4 31 -9 15 -13 132 -23 140 -12
10 18 35 0 81 -61 46 -60 46 -61 26 -80 -13 -14 -37 -21 -72 -24 -91 -6 -138
-32 -165 -88 -17 -36 -63 -62 -125 -72 -56 -9 -80 13 -80 73 0 25 4 42 9 38 5
-3 13 0 17 6 4 8 3 9 -4 5 -7 -4 -12 -3 -12 3 0 10 -25 9 -36 -2 -4 -4 -29 -7
-55 -7 -26 0 -50 -4 -53 -9 -3 -5 -29 -21 -58 -37 -29 -15 -62 -32 -73 -38
-12 -6 -21 -15 -20 -21 0 -5 -20 -13 -43 -16 -24 -3 -47 -12 -52 -19 -7 -11
-11 -12 -25 0 -13 11 -18 10 -30 -6 -8 -10 -15 -22 -15 -26 0 -5 -18 -8 -40
-8 -37 0 -40 -2 -40 -27 l0 -26 -20 23 c-19 22 -21 23 -34 5 -13 -18 -14 -18
-24 1 -10 18 -11 18 -18 1 -6 -17 -7 -17 -19 0 -7 10 -11 21 -9 25 3 5 -2 8
-11 8 -9 0 -13 4 -10 10 3 6 1 10 -4 10 -6 0 -11 -10 -11 -22 l0 -22 -16 22
c-13 18 -19 21 -30 11 -8 -6 -14 -18 -14 -25 0 -8 -6 -14 -13 -14 -8 0 -24 -9
-37 -20 -13 -11 -30 -20 -39 -21 -9 0 8 -6 37 -14 30 -7 59 -18 65 -24 6 -6
25 -11 42 -11 17 0 37 -6 44 -12 10 -11 16 -8 32 10 l19 24 9 -24 c4 -12 6
-49 3 -80 -4 -54 -3 -58 19 -66 14 -6 55 -5 99 0 88 11 146 -3 247 -58 34 -19
71 -34 84 -34 12 0 47 -14 77 -31 54 -30 82 -32 82 -6 0 7 -11 23 -24 34 -18
16 -24 31 -24 67 -1 53 13 66 75 66 54 0 79 -21 93 -79 17 -70 29 -78 84 -51
56 27 87 23 104 -13 7 -15 19 -27 26 -27 6 0 30 -16 51 -36 68 -62 110 -79
193 -77 65 2 81 -2 155 -36 62 -30 86 -37 100 -29 28 15 16 40 -32 67 -35 19
-58 24 -103 23 -73 -2 -106 10 -114 43 -11 43 10 75 49 75 18 0 37 -4 43 -8
18 -16 92 -32 151 -32 37 0 67 -6 79 -15 26 -20 64 -19 125 5 29 10 73 22 98
26 25 4 52 11 59 16 21 18 123 4 141 -19 9 -11 28 -23 43 -26 41 -11 86 -54
97 -94 8 -30 6 -46 -14 -96 -14 -33 -25 -65 -25 -71 1 -14 51 -70 82 -90 32
-21 105 -3 135 33 47 55 58 63 86 58 15 -2 31 1 36 7 4 6 24 61 44 121 19 61
42 130 50 155 8 25 45 128 82 230 37 102 77 223 90 270 l24 85 -6 -105 c-3
-58 -9 -143 -13 -190 -9 -104 -4 -391 8 -480 9 -60 8 -80 -2 -69 -6 7 -36 301
-36 359 0 30 3 95 6 144 6 78 5 88 -8 76 -8 -8 -15 -19 -16 -25 0 -5 -17 -55
-37 -110 -20 -55 -34 -108 -31 -118 2 -11 2 -16 -2 -13 -3 4 -12 -8 -19 -25
-16 -37 -17 -52 -3 -44 15 10 12 -29 -5 -51 -18 -24 -19 -34 -2 -34 12 0 37
44 37 66 0 6 7 17 15 24 12 10 15 9 15 -8 0 -11 -6 -25 -14 -31 -8 -7 -17 -35
-21 -62 -5 -35 -16 -61 -36 -84 -16 -18 -30 -41 -30 -51 -1 -11 -5 -6 -9 11
l-7 30 -8 -32 c-4 -18 -12 -33 -17 -33 -6 0 -8 -9 -5 -19 3 -11 -1 -28 -7 -38
-21 -30 -59 -161 -50 -174 4 -8 3 -10 -4 -5 -8 5 -12 -2 -12 -18 0 -14 -4 -26
-10 -26 -5 0 -10 -8 -10 -19 0 -10 -7 -35 -15 -55 -8 -20 -15 -38 -15 -41 1
-34 -2 -46 -16 -59 -8 -9 -12 -16 -9 -16 4 0 -2 -15 -13 -32 -11 -18 -27 -53
-35 -78 -17 -52 -65 -374 -70 -472 -2 -53 -8 -72 -25 -91 -19 -20 -23 -38 -27
-122 -3 -54 -7 -100 -9 -103 -11 -10 -24 11 -30 49 -6 37 -9 40 -29 35 -12 -4
-43 -9 -69 -13 -36 -4 -48 -10 -48 -23 0 -9 -3 -20 -7 -24 -11 -10 -3 -80 9
-87 12 -8 4 -39 -10 -39 -5 0 -22 12 -37 26 -23 21 -34 24 -65 19 -24 -4 -46
-2 -59 7 -18 11 -23 11 -31 -2 -7 -11 -13 -12 -32 -3 -13 7 -34 15 -48 19 -14
4 -37 15 -52 26 -26 18 -39 18 -102 1 -16 -4 -18 -1 -12 22 5 19 0 37 -15 61
-58 94 -70 133 -63 197 4 34 13 68 21 75 38 39 -38 56 -155 36 -60 -11 -81
-19 -104 -43 -24 -25 -26 -30 -13 -41 9 -7 13 -20 10 -30 -8 -24 25 -50 60
-47 25 2 31 -2 33 -21 5 -32 -34 -72 -69 -72 -27 0 -99 26 -99 35 0 3 7 17 16
30 15 24 15 25 -3 25 -21 0 -53 -29 -53 -48 0 -15 -2 -15 -35 2 -35 18 -45 33
-45 69 0 21 12 36 54 69 30 23 52 46 50 50 -3 4 -25 8 -49 8 -42 0 -68 -14
-78 -42 -2 -7 -8 -10 -12 -6 -5 5 -3 20 4 35 10 22 10 28 -4 36 -12 6 -15 16
-9 40 9 43 20 48 80 41 l52 -6 60 61 c56 56 92 76 92 51 0 -5 -4 -10 -10 -10
-5 0 -10 -6 -10 -14 0 -7 -9 -16 -20 -19 -13 -3 -18 -10 -14 -21 8 -22 43 -20
63 3 12 13 29 19 52 19 19 -1 72 13 119 30 72 26 87 29 99 18 8 -9 10 -19 5
-27 -19 -31 -3 -83 34 -116 41 -36 75 -41 118 -18 l28 14 -25 9 c-14 6 -30 16
-36 24 -13 15 -6 58 9 58 15 0 108 96 108 111 0 27 -17 41 -39 34 -12 -3 -19
-10 -16 -15 9 -14 -8 -19 -93 -25 -129 -10 -140 -9 -177 11 -40 21 -44 38 -15
56 12 8 20 24 20 38 0 15 6 34 13 44 11 16 15 16 49 1 46 -18 118 -20 118 -2
-1 6 -14 27 -30 46 -24 28 -34 33 -57 28 -51 -10 -83 -26 -83 -42 0 -11 -11
-15 -38 -15 -33 0 -43 -6 -71 -40 -17 -22 -40 -40 -49 -40 -29 0 -62 -29 -62
-55 0 -19 -9 -28 -36 -40 -20 -8 -46 -15 -58 -15 -14 0 -26 -11 -36 -33 -19
-40 -47 -45 -85 -15 -20 15 -39 21 -66 19 -42 -3 -71 25 -61 61 4 18 2 20 -16
16 -14 -4 -25 -1 -30 9 -5 8 -21 16 -36 17 -36 4 -63 31 -63 63 0 35 -27 53
-78 53 -43 0 -105 24 -105 41 0 4 -12 16 -26 26 -25 16 -27 16 -40 -2 -19 -26
-17 -45 5 -45 12 0 20 -9 24 -26 4 -22 0 -28 -24 -36 -16 -5 -29 -14 -29 -19
0 -6 -6 -9 -12 -8 -29 3 -38 -2 -38 -25 0 -13 6 -28 13 -34 14 -12 57 -5 57 9
0 5 15 15 33 23 28 11 36 11 60 -3 30 -17 57 -58 57 -86 0 -9 9 -19 20 -22 25
-7 25 -25 0 -48 -11 -10 -20 -24 -20 -32 0 -18 -59 -53 -89 -53 -19 0 -21 3
-12 14 6 7 10 24 9 36 -2 18 3 25 21 30 36 8 39 30 3 30 -29 0 -59 20 -77 54
-6 10 -24 20 -41 22 -25 3 -33 -1 -43 -22 -18 -41 -14 -64 13 -64 13 0 29 -7
37 -16 8 -10 21 -13 36 -9 17 4 23 1 23 -10 0 -21 -30 -31 -41 -14 -7 12 -9
12 -9 -1 0 -18 -36 -43 -65 -45 -11 -1 -25 5 -32 14 -10 14 -12 14 -19 -2 -5
-14 1 -25 20 -42 16 -14 23 -26 17 -30 -6 -3 -11 -15 -11 -26 0 -15 -7 -19
-35 -19 -19 0 -35 -4 -35 -10 0 -5 -9 -10 -20 -10 -11 0 -20 -4 -20 -10 0 -23
-20 -7 -31 25 -10 27 -19 35 -37 35 -39 0 -116 -22 -135 -38 -25 -22 -39 -4
-39 54 -1 49 -12 83 -32 96 -21 14 -32 8 -31 -19 0 -26 -3 -28 -55 -35 -30 -3
-58 -4 -62 -2 -14 9 -20 76 -9 100 8 19 8 31 -1 47 -18 34 -19 70 -1 90 15 16
15 19 0 35 -22 21 -50 6 -55 -29 -4 -26 -27 -55 -55 -70 -13 -7 -27 -5 -50 8
-23 14 -44 17 -75 13 -42 -5 -44 -7 -61 -58 -18 -53 -18 -54 4 -95 20 -40 24
-42 67 -42 37 0 50 -6 67 -25 11 -14 20 -28 21 -31 0 -4 11 -9 25 -11 17 -4
26 0 30 11 3 9 21 25 40 35 35 19 36 19 50 0 18 -24 19 -44 3 -44 -36 0 -90
-24 -104 -45 -14 -21 -14 -26 1 -55 23 -45 42 -48 75 -11 34 36 66 40 103 11
32 -25 33 -25 69 5 41 35 97 33 168 -5 30 -17 63 -30 73 -30 23 0 29 -17 31
-90 1 -40 -3 -61 -11 -65 -7 -2 -13 -8 -13 -12 0 -8 92 -49 99 -44 2 1 7 -3
12 -10 4 -8 11 -10 15 -6 4 4 2 13 -4 19 -7 7 -12 20 -12 30 0 11 -12 30 -27
43 l-28 23 28 7 c16 4 47 4 70 -1 33 -7 43 -14 45 -32 2 -13 -2 -30 -9 -38 -9
-11 -9 -18 2 -32 33 -41 42 -64 27 -74 -10 -7 -10 -11 0 -15 20 -8 14 -49 -10
-66 l-23 -15 31 -32 c28 -29 36 -32 68 -26 40 8 42 12 21 40 -8 11 -15 34 -15
52 0 27 6 36 44 58 30 18 51 40 65 70 20 39 25 44 66 49 25 4 56 2 70 -3 23
-9 26 -15 23 -47 -3 -33 -7 -39 -38 -49 -22 -7 -37 -19 -40 -33 -3 -12 -9 -23
-15 -24 -17 -2 -67 -85 -63 -104 3 -14 12 -17 42 -16 36 2 37 2 34 -30 -2 -23
-9 -33 -23 -35 -11 -2 -29 -14 -40 -27 -15 -17 -28 -22 -48 -18 -15 3 -27 12
-27 20 0 11 -10 14 -42 11 -41 -3 -44 -6 -68 -55 -14 -29 -30 -51 -36 -48 -20
6 -55 -25 -49 -45 6 -19 -4 -23 -87 -35 -40 -6 -49 -4 -54 10 -8 20 10 43 20
26 10 -15 56 -14 56 2 0 37 23 89 43 96 26 10 36 61 13 61 -15 0 -27 21 -33
56 -4 26 16 44 59 53 l33 7 -34 29 c-18 17 -37 40 -42 53 -6 14 -17 22 -32 22
-14 0 -43 7 -67 15 -31 11 -47 12 -62 4 -12 -6 -35 -9 -52 -6 -40 6 -125 -15
-137 -34 -5 -8 -9 -28 -9 -44 0 -17 -5 -36 -12 -43 -15 -15 -64 -16 -73 -2
-10 16 -19 12 -30 -12 -8 -19 -18 -23 -52 -23 -22 0 -44 -3 -48 -7 -10 -10 26
-59 52 -69 24 -9 25 -27 7 -133 -8 -47 4 -57 58 -44 48 10 102 -5 135 -40 24
-24 32 -48 12 -36 -17 10 -173 -17 -182 -33 -6 -10 -12 -11 -21 -4 -9 8 -21 7
-40 -2 -20 -9 -26 -18 -24 -37 l3 -25 168 -3 c144 -2 167 0 167 13 0 19 19 20
26 0 4 -10 20 -15 50 -15 42 0 44 1 44 30 0 17 5 30 10 30 6 0 10 -5 10 -10 0
-6 11 -15 25 -20 14 -5 25 -14 25 -20 0 -6 12 -10 28 -8 20 2 28 9 30 28 6 37
21 50 58 50 26 0 37 -6 45 -23 19 -41 62 -57 159 -57 60 0 90 4 92 12 4 10 13
10 44 1 27 -8 168 -12 447 -13 l407 0 0 24 c0 26 16 36 60 36 20 0 38 11 64
40 20 22 36 45 36 51 0 15 62 69 80 69 9 0 29 14 45 30 19 19 39 30 57 30 37
0 36 14 -2 30 -19 8 -48 10 -80 6 -46 -6 -52 -4 -81 23 -37 36 -34 52 15 75
20 9 34 21 31 27 -7 11 35 28 53 22 21 -8 13 -33 -13 -43 -22 -8 -24 -13 -15
-30 13 -24 37 -26 61 -4 10 9 37 17 61 18 42 2 43 3 49 44 8 59 1 57 114 49
51 -3 62 -24 71 -138 4 -46 11 -92 15 -101 5 -10 5 -18 -1 -20 -6 -2 -6 -28 0
-72 12 -78 18 -94 32 -75 7 11 8 9 4 -4 -3 -10 -6 -24 -6 -30 0 -8 -4 -7 -9 2
-7 11 -11 8 -16 -10 -5 -13 -15 -29 -24 -36 -13 -10 762 -12 3662 -13 2022 0
3677 3 3677 8 0 4 -13 41 -29 82 -16 41 -34 109 -41 150 -12 73 -23 100 -41
100 -5 0 -9 -11 -9 -25 0 -14 -4 -25 -8 -25 -5 0 -12 75 -15 168 -4 92 -11
192 -16 222 -10 57 -71 334 -89 405 -13 53 -29 186 -42 365 -6 80 -18 187 -27
238 -13 71 -14 97 -6 111 9 15 7 22 -9 38 -15 15 -23 46 -34 129 -8 59 -17
117 -20 127 -3 10 -1 23 4 30 7 8 2 28 -15 62 -30 61 -74 221 -66 241 3 8 11
14 18 14 23 0 65 41 65 63 0 29 77 79 125 82 5 0 11 8 13 17 2 12 -8 22 -34
33 -20 8 -42 15 -49 15 -17 0 -55 -61 -55 -88 0 -22 -72 -64 -95 -56 -19 8
-35 50 -35 92 0 21 -6 46 -13 57 -8 11 -26 61 -41 110 -15 50 -40 115 -55 145
-16 30 -32 66 -36 80 -13 42 -136 290 -147 297 -7 4 -8 1 -3 -8 5 -9 5 -11 -2
-4 -6 6 -24 47 -42 92 -17 45 -39 98 -48 117 -18 35 -33 47 -33 25 0 -7 -16
20 -35 59 -38 75 -102 142 -136 142 -15 0 -19 -4 -15 -16 6 -14 4 -15 -9 -4
-13 11 -13 15 -3 21 12 8 11 10 -11 13 -8 1 -61 53 -61 60 0 5 -134 135 -155
150 -10 7 -25 12 -32 9 -7 -3 -37 6 -66 20 -28 13 -71 28 -94 32 -24 3 -59 18
-79 31 -19 13 -39 22 -44 19 -4 -3 -10 1 -13 8 -6 15 -137 97 -155 97 -7 0
-12 5 -12 11 0 5 -3 8 -7 6 -5 -3 -19 0 -33 6 -14 5 -33 9 -42 8 -10 -1 -18 3
-18 8 0 6 -9 11 -20 11 -11 0 -20 5 -20 10 0 6 -9 10 -19 10 -16 0 -305 133
-394 181 -38 21 -24 1 63 -90 50 -51 88 -97 85 -102 -4 -5 0 -7 7 -4 7 2 29
-10 48 -26 28 -25 30 -30 13 -24 -28 8 -30 -6 -3 -30 11 -10 18 -20 15 -23 -2
-3 -37 26 -76 64 -81 78 -72 68 -176 194 -74 89 -224 230 -245 230 -6 0 -5 -6
2 -15 6 -8 10 -20 8 -26 -2 -7 -15 5 -28 26 -22 35 -23 41 -10 84 21 75 42
182 47 244 l5 58 -60 57 c-33 31 -68 70 -78 85 -9 16 -40 40 -68 54 -28 14
-53 29 -56 32 -3 4 -29 22 -57 40 -57 35 -60 44 -40 94 18 42 22 137 7 137 -7
0 -9 8 -5 21 8 23 -3 154 -12 146 -3 -3 -19 10 -35 29 -37 42 -64 57 -99 56
-21 0 -26 3 -22 15 4 11 0 14 -18 13 -31 -3 -86 18 -92 35 -3 7 -23 19 -44 26
-20 6 -44 18 -51 26 -7 7 -21 13 -31 13 -10 0 -21 3 -24 7 -10 10 -110 43
-115 38 -2 -2 7 -18 22 -35 32 -39 36 -94 7 -110 -25 -13 -74 -13 -87 0 -7 7
-20 7 -34 2 -13 -5 -42 -5 -64 -1 -23 5 -61 8 -86 9 -33 0 -41 3 -30 10 21 13
-2 13 -37 -1 -49 -19 -208 -8 -225 16 -14 19 -8 62 12 88 11 14 20 28 20 31 0
10 -38 7 -45 -4z m-147 -542 c11 3 62 -19 144 -63 10 -5 18 -16 18 -23 0 -7
15 -19 33 -27 18 -8 24 -14 15 -15 -22 0 -35 -45 -19 -64 7 -8 32 -24 57 -35
24 -12 44 -27 44 -35 0 -21 132 -45 153 -28 7 6 31 13 54 17 63 10 124 42 116
60 -3 10 0 15 8 13 9 -2 17 12 23 40 6 23 13 42 17 42 4 0 30 16 58 35 37 26
51 31 51 20 0 -19 19 -20 26 0 4 8 10 12 15 9 5 -3 6 -10 3 -16 -5 -7 -1 -9 9
-5 14 5 16 2 11 -18 -4 -15 -1 -32 6 -40 10 -12 9 -15 -5 -15 -12 0 -15 -5
-11 -16 3 -9 6 -20 6 -25 0 -5 7 -9 15 -9 8 0 15 -4 15 -10 0 -5 -9 -10 -20
-10 -11 0 -20 -4 -20 -10 0 -5 5 -10 12 -10 7 0 6 -5 -4 -12 -19 -16 -31 -48
-18 -48 6 0 10 -5 10 -12 0 -9 -3 -9 -12 0 -16 16 -31 15 -25 -2 7 -18 -12
-36 -40 -36 -16 0 -21 -4 -17 -15 3 -8 -1 -22 -10 -30 -15 -15 -17 -15 -22 -1
-9 24 -23 9 -16 -17 5 -21 5 -21 -12 -4 -24 23 -29 22 -50 -15 -17 -28 -20
-29 -31 -15 -15 21 -25 22 -25 2 0 -11 -11 -15 -40 -15 -22 0 -40 -4 -40 -10
0 -5 -5 -10 -11 -10 -5 0 -7 5 -4 10 10 16 -23 24 -40 10 -11 -9 -22 -9 -46
-1 -39 13 -42 14 -35 2 8 -12 -29 -21 -45 -11 -7 5 -24 4 -37 -1 -14 -5 -28
-6 -31 -2 -8 10 -41 13 -41 4 0 -9 -28 -7 -52 4 -21 8 -13 29 8 21 12 -5 12
-2 3 17 -15 29 -24 37 -16 15 4 -10 3 -18 -2 -18 -5 0 -11 9 -14 21 -5 18 -8
19 -28 8 -17 -9 -24 -9 -27 0 -2 6 -7 9 -12 6 -4 -3 -10 7 -13 20 -2 14 0 28
4 31 15 9 10 24 -6 18 -8 -4 -15 -1 -15 5 0 6 -7 8 -15 5 -8 -4 -15 -1 -15 4
0 6 8 13 18 15 16 4 16 5 0 6 -10 0 -22 -9 -29 -20 -6 -12 -7 -19 -2 -16 4 3
15 -2 23 -11 13 -14 12 -15 -3 -9 -9 3 -17 2 -17 -3 0 -6 7 -10 15 -10 8 0 15
-4 15 -10 0 -5 -6 -10 -13 -10 -18 0 -39 38 -32 61 4 11 2 19 -5 19 -6 0 -4
10 6 25 13 20 14 28 4 40 -7 8 -9 23 -5 36 6 18 4 21 -10 15 -13 -4 -16 -2
-11 9 3 8 1 15 -4 15 -6 0 -10 -4 -10 -10 0 -5 -5 -10 -11 -10 -6 0 -8 9 -4
21 5 13 2 25 -6 31 -10 6 -7 7 9 3 16 -5 22 -2 22 9 0 9 -4 16 -10 16 -5 0 -7
7 -4 15 8 21 -13 19 -25 -2 -5 -10 -13 -15 -16 -11 -4 4 5 19 19 35 14 15 26
33 26 40 0 7 7 13 16 13 11 0 14 6 9 23 l-6 22 18 -21 c10 -11 24 -19 31 -16z
m1132 -395 c0 -144 -10 -196 -45 -225 -17 -14 -18 -20 -7 -37 7 -12 8 -21 4
-21 -5 0 -15 -22 -22 -50 -11 -39 -18 -50 -34 -51 -12 0 -16 -3 -11 -5 20 -8
3 -74 -26 -105 -16 -17 -29 -35 -29 -40 0 -5 -22 -32 -49 -59 -38 -38 -57 -50
-80 -50 -32 0 -65 -25 -55 -42 4 -6 9 -7 13 0 10 15 49 24 56 12 3 -5 0 -10
-7 -10 -7 0 -24 -13 -37 -29 -13 -16 -30 -27 -38 -24 -7 3 -20 -1 -29 -8 -13
-10 -17 -10 -24 1 -5 8 -12 12 -15 8 -4 -3 4 -17 16 -29 15 -15 18 -24 11 -27
-7 -2 -12 -10 -12 -17 0 -7 -9 -15 -21 -18 -21 -6 -21 -34 0 -30 6 2 11 -2 11
-7 0 -6 -4 -10 -10 -10 -14 0 -12 -34 2 -48 10 -10 10 -15 -2 -22 -12 -8 -11
-10 7 -10 12 0 24 6 26 13 3 7 6 5 6 -5 1 -21 9 -22 45 -8 29 11 56 4 56 -15
0 -6 9 -20 20 -30 18 -17 20 -17 14 -2 -3 9 -2 17 4 17 23 0 18 -30 -9 -56
-44 -42 -66 -83 -74 -137 -6 -40 -12 -50 -39 -64 -17 -9 -53 -33 -81 -54 -27
-20 -72 -49 -100 -64 -67 -37 -82 -52 -97 -91 -12 -33 -14 -34 -64 -34 -61 0
-127 26 -194 75 -38 28 -49 42 -54 73 -6 43 -27 67 -74 83 -25 9 -33 18 -38
47 -4 21 -13 49 -21 65 -8 16 -9 27 -3 27 5 0 10 -4 10 -10 0 -5 4 -10 9 -10
6 0 6 12 1 29 -9 32 -2 79 14 96 13 14 66 -10 66 -30 0 -9 14 -13 43 -13 24 1
50 -3 58 -8 23 -14 49 -15 49 -1 1 16 69 59 96 61 13 0 19 6 17 13 -4 9 3 11
25 7 24 -5 30 -2 34 14 4 13 13 20 24 18 11 -2 13 -1 7 1 -24 8 -14 33 13 33
19 0 25 4 22 18 -3 12 6 20 27 28 16 6 30 17 30 25 0 19 45 24 57 7 8 -10 9
-10 5 2 -3 11 -17 15 -49 15 -54 0 -54 13 0 41 l37 19 -37 3 c-29 2 -36 7 -31
19 5 13 1 15 -20 9 -16 -4 -27 -2 -27 4 0 5 -8 10 -17 10 -14 0 -15 2 -4 9 11
7 10 11 -5 20 -18 10 -18 10 3 11 12 0 24 4 27 9 3 5 21 9 38 8 18 0 49 7 68
17 19 9 27 14 18 12 -12 -4 -15 -1 -11 10 5 13 8 13 29 -1 19 -12 22 -13 18
-1 -3 9 5 22 21 32 14 9 24 23 21 30 -3 7 -1 16 4 19 26 16 3 66 -31 70 -39 4
-40 5 -34 15 4 6 11 8 16 4 6 -3 13 3 16 15 3 11 9 19 13 16 5 -3 21 0 37 6
l28 12 -25 8 c-19 7 -15 8 18 5 23 -2 40 0 37 4 -3 5 3 13 12 19 17 10 17 10
1 11 -10 0 -18 5 -18 11 0 6 9 9 20 6 11 -3 22 -1 25 3 3 5 -3 10 -12 13 -15
3 -13 6 9 17 14 7 29 23 32 36 5 17 14 24 34 25 23 2 24 2 5 6 -13 2 -23 9
-23 14 0 6 -5 7 -11 3 -17 -10 5 26 35 59 14 15 26 36 26 45 0 10 12 26 28 36
15 9 20 16 12 13 -32 -10 -15 35 30 77 25 24 62 64 84 90 21 25 42 43 47 40 5
-3 9 -66 9 -141z m-1928 -1225 c39 -51 1 -118 -67 -118 -38 0 -85 35 -85 64 0
27 22 64 44 75 32 16 88 5 108 -21z m303 -61 c34 -48 -1 -113 -65 -123 -86
-14 -111 106 -29 140 39 16 75 10 94 -17z m1189 -226 c3 -5 26 -12 51 -15 36
-6 45 -11 45 -27 0 -11 -31 -86 -69 -167 -87 -185 -142 -353 -155 -475 -4 -29
-26 -99 -37 -113 -5 -6 -27 -63 -50 -125 -22 -63 -44 -118 -49 -123 -6 -6 -18
10 -31 40 -19 44 -20 60 -15 158 4 60 11 128 15 150 5 23 15 73 22 111 13 73
48 179 94 280 14 33 37 87 49 120 21 55 73 152 98 183 12 14 25 16 32 3z
m-452 -98 c10 -9 18 -22 18 -28 0 -7 19 -15 41 -19 35 -6 44 -3 56 14 8 11 23
20 35 20 26 0 21 -22 -29 -138 -33 -80 -34 -86 -22 -129 11 -42 11 -47 -7 -62
-12 -10 -20 -31 -21 -56 -5 -75 -26 -205 -34 -205 -20 0 -30 147 -16 206 7 27
5 32 -15 37 -29 8 -32 4 -17 -21 7 -11 9 -28 5 -38 -7 -18 -9 -17 -27 6 -14
18 -18 34 -14 60 16 104 17 227 1 286 -9 34 -16 67 -16 73 0 17 41 13 62 -6z
m1689 -82 c34 -35 36 -49 8 -85 -26 -33 -84 -36 -123 -5 -22 17 -26 28 -24 57
5 65 87 84 139 33z m-5529 -312 c10 -31 130 -36 214 -9 38 12 78 24 89 26 11
2 32 7 48 10 33 8 57 -10 57 -42 0 -12 5 -26 10 -29 6 -3 10 -19 10 -35 0 -16
9 -37 20 -48 15 -14 18 -24 11 -47 -4 -17 -10 -29 -14 -27 -21 7 -36 -2 -54
-35 -48 -84 -88 -101 -154 -65 -49 26 -90 64 -87 80 2 8 16 16 33 18 16 2 31
8 33 14 2 6 19 17 38 25 34 14 46 42 22 50 -7 2 -30 6 -51 10 -37 6 -39 5 -54
-34 -11 -27 -20 -38 -30 -34 -10 4 -13 0 -11 -13 2 -15 -8 -20 -67 -30 -38 -7
-98 -13 -132 -13 -43 -1 -65 -5 -70 -15 -4 -8 -15 -16 -23 -18 -8 -2 -18 -7
-21 -12 -18 -24 -121 37 -105 63 3 5 23 15 44 22 20 6 44 18 54 26 11 10 18
11 23 4 11 -19 23 -12 34 20 12 35 7 51 -13 43 -7 -3 -19 2 -26 11 -11 13 -9
15 9 15 11 0 21 4 21 9 0 5 9 13 20 16 11 3 20 12 20 19 0 7 11 25 25 40 14
15 25 31 25 36 0 11 46 -34 52 -51z m618 -284 c0 -8 5 -15 10 -15 16 0 0 -52
-24 -78 -14 -16 -29 -22 -44 -19 -12 2 -25 0 -28 -4 -3 -5 -14 -9 -24 -9 -10
0 -25 -7 -34 -15 -8 -8 -29 -18 -45 -21 -29 -6 -31 -5 -31 25 0 18 -5 31 -12
31 -7 0 8 11 33 23 25 12 63 36 85 54 53 42 114 57 114 28z m1946 -342 c8 -10
19 -29 25 -42 23 -55 -38 -138 -108 -148 -111 -15 -132 134 -28 199 36 23 90
18 111 -9z m1463 8 c2 -1 0 -27 -4 -58 -5 -32 -10 -94 -11 -138 -3 -104 -3
-105 -12 -105 -4 0 -8 12 -7 27 0 38 -42 62 -80 45 -24 -11 -27 -17 -21 -44 5
-26 4 -29 -9 -18 -20 17 -19 36 6 90 14 31 20 67 21 115 0 38 5 76 11 83 9 12
44 12 106 3z m-4990 -1367 c29 -53 76 -78 133 -71 37 5 37 5 32 -27 -15 -88
-27 -127 -36 -118 -6 6 -26 8 -44 5 -22 -4 -34 -2 -34 6 0 6 -9 11 -20 11 -28
0 -26 36 2 51 21 11 21 12 3 25 -10 8 -31 14 -47 14 -48 0 -107 75 -88 110 13
25 49 50 64 44 6 -2 22 -25 35 -50z m-211 1 c2 -14 -7 -26 -28 -38 -33 -20
-38 -38 -15 -57 8 -7 15 -21 15 -31 0 -10 5 -21 11 -25 16 -10 -1 -22 -43 -29
-23 -5 -38 -3 -38 3 0 5 -11 13 -24 16 -27 7 -56 31 -56 47 0 6 14 23 31 39
27 24 31 34 26 59 -6 27 -3 30 21 34 60 10 97 3 100 -18z m5298 9 c90 -60 58
-203 -50 -221 -48 -8 -91 12 -117 54 -38 61 -20 151 35 173 35 15 105 11 132
-6z m-4436 -240 c37 -25 50 -45 50 -75 0 -14 7 -32 15 -39 14 -12 14 -15 0
-30 -9 -10 -33 -20 -54 -24 -45 -7 -79 -33 -82 -61 -3 -44 1 -55 23 -55 11 0
35 -11 52 -24 30 -22 38 -24 149 -21 116 3 118 3 115 -18 -2 -18 -11 -23 -48
-25 -52 -4 -76 -22 -85 -62 -4 -20 -11 -27 -21 -23 -8 3 -20 -2 -27 -10 -12
-16 -51 -17 -94 -2 -28 9 -30 35 -4 35 20 0 35 25 25 41 -9 15 -41 10 -48 -7
-5 -12 -14 -15 -39 -10 -67 14 -72 13 -75 -16 -2 -18 3 -30 17 -37 11 -6 21
-21 23 -33 2 -16 12 -24 35 -29 20 -4 34 -2 36 4 2 6 6 4 9 -4 3 -8 0 -23 -8
-33 -12 -17 -14 -17 -45 5 -39 28 -92 27 -123 -2 -31 -29 -76 -22 -96 16 -8
17 -19 33 -25 38 -12 9 44 58 65 56 39 -3 43 0 28 23 -11 16 -26 22 -57 24
-69 4 -92 38 -47 68 14 8 32 29 42 45 10 17 35 37 60 47 45 19 68 51 53 75
-26 41 3 116 59 154 42 29 87 32 122 9z m-498 -341 c10 -9 18 -29 18 -45 0
-18 10 -39 26 -55 40 -40 39 -61 -4 -79 -33 -13 -38 -13 -48 1 -11 14 -15 12
-34 -15 -26 -37 -40 -38 -40 -5 0 18 5 25 18 25 13 0 24 14 35 41 17 44 15 59
-9 59 -18 0 -64 29 -64 41 0 17 40 49 62 49 12 0 30 -7 40 -17z m-246 -161
c-4 -13 -26 -27 -57 -38 -46 -17 -49 -20 -44 -46 4 -15 4 -37 0 -48 -13 -40
-69 -13 -70 34 0 17 -6 21 -28 19 l-28 -2 23 29 c19 24 29 29 53 25 18 -3 38
2 50 12 16 13 17 15 3 10 -10 -4 -18 -3 -18 2 0 12 45 22 64 15 8 -3 23 -1 33
4 22 13 27 9 19 -16z"/>
<path d="M2815 5667 c-15 -12 -19 -31 -22 -118 -3 -57 -6 -120 -7 -139 -2 -19
-4 -43 -5 -53 -1 -20 -57 -57 -87 -57 -31 0 -64 -33 -75 -75 -15 -53 -81 -121
-127 -131 -20 -4 -48 -7 -62 -6 -16 2 -30 -5 -38 -19 -12 -19 -11 -24 9 -45
20 -21 31 -24 103 -24 69 0 98 -6 191 -39 61 -21 122 -43 137 -49 77 -31 11
-50 -98 -27 -72 15 -80 15 -113 -1 -20 -10 -69 -20 -109 -24 -51 -4 -76 -10
-82 -21 -5 -9 -27 -21 -49 -29 -39 -12 -44 -12 -93 15 -29 15 -60 36 -70 46
-22 26 -45 24 -90 -7 -38 -26 -45 -27 -120 -8 -46 11 -80 -5 -130 -59 l-47
-52 -36 19 c-19 11 -35 25 -35 32 0 26 -91 34 -138 11 -32 -16 -33 -16 -94 2
-44 12 -49 12 -85 -10 -21 -13 -41 -27 -45 -33 -6 -10 -58 1 -123 27 -19 7
-73 10 -144 9 -65 -2 -141 2 -177 9 -60 12 -65 11 -86 -8 -34 -32 -71 -38
-110 -18 -51 25 -225 33 -268 11 -20 -9 -58 -16 -94 -16 -54 -1 -64 -4 -90
-30 -31 -32 -41 -36 -50 -21 -3 5 -15 7 -26 4 -13 -4 -26 1 -34 12 -16 22 -48
13 -70 -20 -9 -14 -23 -25 -31 -25 -8 0 -15 -7 -15 -15 0 -17 -35 -21 -45 -5
-3 6 -13 10 -21 10 -11 0 -14 -22 -14 -116 0 -129 -4 -124 75 -89 121 53 186
57 251 16 25 -16 52 -27 59 -25 7 3 27 23 44 45 25 30 39 39 62 39 30 0 125
-23 164 -40 11 -5 46 -20 77 -34 56 -24 59 -24 90 -8 68 35 278 10 278 -33 0
-26 17 -24 63 5 38 24 56 29 114 29 83 1 138 13 164 37 21 19 25 44 8 44 -6 0
-2 16 10 36 12 19 18 40 15 46 -9 14 131 5 148 -10 13 -11 113 -27 158 -25 14
0 61 4 105 9 89 9 107 9 183 -2 46 -6 60 -3 115 24 34 17 74 34 90 37 36 9 81
-10 97 -41 8 -13 17 -24 21 -24 4 0 23 -22 43 -50 32 -44 40 -50 72 -50 26 0
43 8 64 28 48 49 80 64 161 77 78 12 126 9 182 -14 16 -6 40 -11 55 -11 41 0
92 -35 92 -64 0 -29 -13 -41 -70 -59 -60 -20 -92 -26 -175 -32 -38 -3 -83 -8
-100 -12 -44 -9 -81 -13 -175 -18 -108 -5 -145 -15 -145 -41 0 -13 11 -23 35
-31 50 -17 86 -16 160 7 36 11 75 20 87 20 12 0 42 10 66 21 50 25 92 20 102
-10 3 -11 18 -22 34 -26 18 -4 32 -17 43 -40 8 -19 13 -37 10 -40 -3 -3 -22
-5 -41 -5 -30 0 -54 -9 -89 -36 -2 -1 7 -14 20 -29 l23 -27 115 8 c63 5 138 8
165 7 200 -7 353 -2 399 13 38 13 56 14 85 6 67 -19 165 -33 306 -42 76 -5
148 -13 160 -18 60 -27 109 -37 193 -37 53 0 96 4 100 10 4 5 29 20 55 33 38
18 73 24 170 28 154 8 150 8 225 -1 40 -5 62 -4 62 2 0 6 15 16 33 23 17 6 49
21 71 32 48 25 150 35 200 18 20 -6 67 -30 104 -51 55 -33 75 -39 112 -37 43
3 45 4 48 36 4 38 42 91 123 172 107 108 155 256 100 314 -14 14 -30 26 -37
26 -24 0 -74 51 -74 76 0 34 37 104 55 104 17 0 46 63 46 100 0 131 -9 229
-24 257 -14 27 -23 32 -64 36 -27 3 -83 10 -125 16 -63 9 -84 9 -111 -2 -48
-21 -314 -8 -351 16 -14 10 -26 24 -26 31 0 8 -5 16 -11 18 -9 3 -9 9 -1 25 9
17 7 24 -14 44 -25 24 -28 24 -252 25 -155 0 -234 4 -249 12 -26 14 -78 16
-102 2 -10 -5 -112 -12 -227 -15 -115 -3 -249 -8 -299 -11 -49 -4 -136 -6
-192 -5 -56 1 -110 -3 -120 -9 -10 -5 -33 -13 -52 -18 -37 -8 -51 -26 -28 -35
7 -3 36 -1 63 4 32 6 74 6 119 -1 39 -6 89 -14 113 -17 23 -3 42 -10 42 -14 0
-5 -6 -9 -12 -9 -7 0 2 -13 20 -28 17 -15 32 -30 32 -34 0 -3 -14 -21 -31 -39
-28 -30 -29 -34 -12 -40 13 -6 10 -8 -14 -8 -18 -1 -33 4 -33 9 0 14 -16 12
-32 -3 -26 -27 -57 -37 -112 -37 -54 0 -55 1 -66 36 -9 27 -16 34 -29 28 -65
-27 -110 -41 -118 -35 -6 3 -22 25 -36 48 -35 56 -55 66 -109 54 -70 -15 -171
-24 -165 -15 3 5 -20 8 -50 7 -93 -4 -136 25 -123 82 10 46 14 181 7 230 -10
72 -24 91 -52 72z"/>
<path d="M3091 5671 c-29 -8 -42 -37 -30 -68 10 -27 14 -127 6 -168 -9 -51 1
-75 34 -75 27 0 29 2 29 43 0 23 -6 51 -14 62 -11 16 -15 109 -5 123 1 1 2 5
3 10 1 4 8 18 15 31 17 30 -2 51 -38 42z"/>
<path d="M1723 4513 c-12 -2 -27 -11 -33 -19 -7 -8 -27 -14 -46 -14 -46 0 -52
-27 -19 -79 20 -32 31 -41 54 -41 36 0 91 19 91 31 0 6 4 15 10 22 62 77 61
73 41 91 -17 15 -50 18 -98 9z"/>
<path d="M2146 4408 c-11 -6 -40 -8 -73 -4 -34 4 -77 1 -116 -8 -34 -8 -91
-20 -127 -26 -36 -7 -66 -13 -68 -14 -8 -9 15 -39 44 -57 40 -24 114 -27 230
-8 38 6 92 14 120 19 73 11 114 35 114 65 0 14 -8 29 -19 35 -25 13 -81 12
-105 -2z"/>
<path d="M23 4363 c-22 -4 -23 -9 -23 -89 l0 -84 49 0 c27 0 53 6 59 13 19 24
24 78 11 123 -12 40 -16 44 -44 43 -16 -1 -40 -4 -52 -6z"/>
<path d="M672 4301 c-32 -15 -34 -17 -27 -55 3 -22 11 -43 16 -47 22 -13 98
15 130 47 l32 33 -24 20 c-29 24 -80 25 -127 2z"/>
<path d="M420 3930 c-8 -5 -41 -10 -72 -10 -32 0 -77 -6 -100 -14 -24 -8 -68
-17 -98 -21 -51 -7 -100 -28 -100 -44 0 -14 70 -29 98 -22 15 4 33 19 40 35
10 20 18 25 30 20 37 -18 257 4 257 25 0 21 -37 42 -55 31z"/>
<path d="M1110 3813 c-8 -3 -48 -21 -89 -39 l-74 -35 24 -22 c13 -12 28 -22
34 -23 5 0 36 -4 67 -8 49 -7 64 -5 113 18 66 30 145 35 165 11 13 -16 50 -21
50 -6 0 5 -13 14 -29 21 -16 6 -37 20 -47 31 -9 10 -22 19 -28 19 -6 0 -22 9
-36 20 -18 14 -40 19 -80 19 -30 0 -62 -3 -70 -6z"/>
<path d="M2202 3760 c-18 -8 -21 -15 -16 -34 7 -28 -9 -61 -35 -76 -15 -7 -30
-4 -65 16 -47 26 -55 41 -34 62 9 9 6 12 -14 12 -46 0 -90 -13 -95 -28 -11
-28 27 -80 73 -99 33 -13 44 -24 44 -40 0 -17 11 -24 58 -38 31 -10 75 -28 97
-40 54 -30 87 -37 144 -29 43 6 52 11 90 60 23 30 55 61 70 69 15 7 36 26 45
40 16 25 16 26 -6 34 -13 4 -22 12 -20 17 1 5 -6 10 -16 12 -12 2 -23 -6 -30
-22 -6 -14 -25 -32 -42 -41 -29 -15 -34 -15 -68 2 -26 13 -38 27 -44 50 -9 36
-64 83 -94 82 -10 0 -29 -4 -42 -9z"/>
<path d="M3776 3617 c-16 -12 -17 -16 -5 -36 13 -21 11 -25 -26 -59 -27 -25
-41 -45 -40 -62 0 -26 1 -27 115 -55 112 -28 119 -28 145 -11 35 23 51 20 65
-14 7 -17 16 -33 21 -35 12 -8 100 14 134 33 32 18 172 22 250 7 22 -4 37 -4
33 0 -4 5 -4 13 1 19 4 6 11 23 14 37 6 25 5 27 -45 33 -58 8 -87 21 -106 48
-16 22 -38 23 -84 3 -45 -18 -190 -24 -196 -7 -2 7 -13 12 -25 12 -32 1 -105
36 -144 70 -36 32 -77 39 -107 17z"/>
<path d="M790 3560 c0 -5 -9 -10 -19 -10 -23 0 -111 -81 -111 -103 0 -42 -67
-32 -72 11 -3 26 -5 27 -73 30 -62 2 -85 9 -156 43 -9 4 -34 12 -56 18 -48 13
-101 -4 -125 -41 -16 -24 -90 -68 -114 -68 -8 0 -14 -5 -14 -10 0 -13 -32 -9
-42 5 -4 6 -8 -4 -8 -20 0 -28 4 -32 43 -43 31 -9 48 -21 65 -48 12 -19 22
-41 22 -49 0 -12 29 -25 58 -25 6 0 12 11 12 25 0 18 5 25 20 25 11 0 20 7 20
15 0 9 -9 15 -25 15 -28 0 -29 3 -15 31 8 14 21 19 55 19 24 0 46 -4 49 -9 3
-4 18 -6 33 -4 35 5 35 5 108 -6 82 -12 109 -24 150 -67 19 -19 36 -33 36 -30
1 3 2 9 3 14 1 4 8 17 16 28 15 21 20 21 110 13 102 -9 124 -6 155 21 11 10
37 23 57 31 32 11 44 10 92 -6 31 -11 56 -23 56 -27 0 -24 106 17 123 47 8 15
10 14 70 -17 76 -40 100 -48 152 -48 32 0 55 -4 55 -11 0 -5 5 -7 10 -4 6 3
10 -1 10 -9 0 -9 5 -16 11 -16 6 0 8 -9 4 -20 -4 -13 -2 -20 7 -20 16 0 47 20
32 20 -19 0 -25 43 -9 60 13 13 15 12 15 -5 0 -25 17 -8 24 25 10 41 -15 60
-90 71 -74 10 -99 26 -120 76 -18 42 -98 83 -160 83 -34 0 -54 -7 -81 -27 -28
-22 -51 -29 -112 -35 -60 -5 -79 -11 -89 -27 -13 -19 -15 -19 -50 -3 -20 9
-44 25 -54 35 -10 9 -22 17 -28 17 -5 0 -19 9 -30 20 -11 11 -20 16 -20 10z"/>
<path d="M4968 3429 c-35 -13 -35 -25 1 -67 36 -42 76 -45 131 -8 67 44 58 52
-85 81 -11 2 -32 -1 -47 -6z"/>
<path d="M1885 3350 c3 -5 2 -10 -2 -10 -5 0 -16 -13 -26 -29 -16 -27 -16 -29
1 -43 19 -17 62 -30 62 -19 0 10 83 0 98 -12 15 -12 79 -27 145 -34 33 -3 59
0 84 12 28 13 50 16 102 11 93 -10 110 -10 163 -3 36 4 48 2 52 -10 5 -12 17
-14 64 -9 91 11 172 12 172 4 0 -15 41 -30 53 -20 8 7 30 6 67 -4 75 -19 91
-18 123 12 49 45 22 61 -105 63 -48 1 -77 7 -100 21 -25 15 -51 20 -110 20
-42 0 -79 4 -82 9 -3 4 -26 14 -52 21 -37 11 -53 11 -80 1 -43 -16 -256 -22
-314 -10 -24 6 -52 17 -62 26 -12 11 -28 14 -55 9 -110 -17 -121 -18 -127 -7
-4 6 -23 11 -42 11 -21 0 -33 -4 -29 -10z"/>
<path d="M5550 3323 c-14 -3 -30 -9 -35 -14 -24 -19 -94 -22 -119 -5 -33 21
-53 20 -65 -2 -8 -15 -4 -21 22 -35 19 -10 45 -15 64 -13 18 3 36 0 39 -6 4
-6 27 -7 58 -3 68 9 87 15 81 26 -3 5 1 6 9 3 9 -3 16 -1 16 5 0 6 -7 11 -16
11 -11 0 -14 6 -9 20 7 21 4 22 -45 13z"/>
<path d="M2536 2718 c5 -8 -2 -9 -24 -5 -21 4 -32 3 -32 -5 0 -14 -39 -48 -57
-48 -7 0 -22 -8 -32 -17 -37 -34 -46 -38 -76 -37 -32 1 -90 -28 -98 -49 -2 -7
-23 -12 -48 -12 -39 0 -44 2 -43 22 1 14 -3 20 -10 16 -6 -4 -15 -8 -21 -9 -5
0 -16 -2 -23 -2 -7 -1 -11 -6 -8 -11 8 -13 -20 -21 -32 -9 -17 17 -24 -9 -13
-50 9 -32 17 -40 48 -50 20 -6 40 -9 45 -6 30 19 143 -70 136 -105 -2 -9 14
-30 37 -49 22 -17 45 -37 52 -42 31 -26 44 -10 44 54 -1 66 69 137 119 121 15
-5 29 2 53 25 18 17 43 38 57 47 14 8 35 28 48 44 23 28 23 29 5 59 -9 16 -23
30 -30 30 -7 0 -13 5 -13 10 0 25 -51 90 -71 90 -13 0 -18 -4 -13 -12z"/>
<path d="M12370 2633 c-8 -3 -28 -15 -43 -25 -22 -16 -25 -23 -16 -34 6 -8 17
-14 24 -14 7 0 45 -13 83 -29 59 -24 84 -42 144 -105 75 -78 111 -95 122 -58
4 10 22 45 41 77 21 34 32 62 27 67 -5 5 -43 14 -83 19 -98 13 -128 25 -164
66 -25 28 -39 36 -75 39 -25 2 -52 1 -60 -3z"/>
<path d="M2038 2155 c-5 -5 -217 -27 -293 -31 -38 -1 -71 -7 -72 -11 -1 -4 8
-21 20 -36 l23 -28 100 12 c54 6 121 11 147 10 29 0 58 5 70 14 12 8 32 15 44
15 13 0 23 5 23 10 0 6 -4 10 -10 10 -5 0 -10 6 -10 14 0 12 -34 29 -42 21z"/>
<path d="M2562 2107 c-12 -6 -22 -14 -22 -19 0 -4 -8 -8 -19 -8 -10 0 -24 -7
-32 -16 -10 -13 -10 -17 1 -24 8 -5 11 -12 7 -16 -4 -4 -13 0 -20 10 -16 22
-51 17 -55 -8 -6 -30 11 -37 72 -30 36 4 52 10 44 15 -10 6 -8 13 9 28 l21 20
12 -30 c10 -22 19 -29 41 -29 15 0 31 -4 34 -10 10 -17 28 -11 65 20 29 25 32
32 20 40 -8 5 -24 10 -35 10 -32 0 -65 12 -60 20 13 21 -50 42 -83 27z"/>
<path d="M12321 1964 c-12 -9 -30 -32 -40 -53 -11 -20 -27 -43 -35 -50 -9 -8
-16 -22 -16 -33 0 -18 4 -19 37 -13 21 4 49 13 63 20 34 18 90 74 90 91 0 7
-17 22 -39 33 -34 18 -40 18 -60 5z"/>
<path d="M841 1943 c-1 -7 -9 -13 -19 -13 -11 0 -27 -9 -37 -20 -10 -11 -32
-24 -49 -28 -30 -8 -31 -10 -30 -64 2 -89 11 -95 67 -42 26 26 47 54 47 64 0
10 6 23 14 29 19 16 25 42 15 66 -4 11 -8 14 -8 8z"/>
<path d="M4320 1901 c-25 -10 -67 -30 -95 -45 -54 -29 -84 -30 -189 -6 -27 6
-52 7 -56 3 -12 -15 -31 -83 -26 -92 3 -5 27 -12 53 -16 60 -9 81 -19 113 -56
24 -28 27 -28 94 -21 75 8 76 8 97 82 8 24 31 67 51 94 21 28 38 53 38 57 0 6
-28 21 -33 18 -1 0 -22 -9 -47 -18z"/>
<path d="M3033 1805 c-3 -9 -13 -15 -22 -13 -28 4 -41 -11 -35 -41 4 -19 0
-38 -12 -55 -16 -26 -16 -28 3 -54 23 -31 64 -40 83 -18 9 12 10 19 1 30 -7 8
-14 23 -16 34 -3 19 -2 20 30 6 39 -16 69 -18 60 -5 -3 5 -1 12 5 16 5 3 10
19 10 35 0 23 -9 35 -37 55 -43 29 -61 31 -70 10z"/>
<path d="M115 1728 c-16 -5 -37 -10 -45 -12 -52 -9 -70 -19 -70 -42 0 -24 2
-24 94 -24 101 0 112 5 118 55 3 27 1 29 -32 30 -19 1 -48 -2 -65 -7z"/>
<path d="M881 1708 c-9 -15 -26 -30 -39 -33 -12 -3 -32 -17 -44 -30 -12 -14
-32 -25 -47 -25 -13 0 -32 -7 -41 -15 -9 -8 -36 -16 -61 -16 -51 -2 -69 -13
-69 -43 0 -11 -14 -34 -31 -50 -26 -25 -33 -27 -54 -18 -18 8 -25 8 -28 -1 -5
-15 -58 -11 -69 6 -6 9 -8 9 -8 0 0 -7 -9 -13 -19 -13 -11 0 -32 -11 -47 -25
-15 -14 -31 -25 -35 -25 -5 0 -9 -11 -9 -24 0 -13 -10 -30 -23 -39 -12 -8 -19
-18 -16 -21 3 -3 55 -8 115 -11 126 -7 141 -10 172 -38 l23 -21 63 22 c35 13
90 25 121 26 32 2 60 8 64 12 17 24 83 64 105 64 42 0 76 -18 76 -40 0 -21 1
-21 95 -25 28 -1 77 -5 110 -10 49 -6 68 -3 103 13 30 13 56 18 86 15 26 -3
46 -1 50 6 4 6 -1 35 -10 64 -11 35 -14 67 -10 90 6 34 9 36 61 47 30 6 57 15
60 19 2 5 -4 19 -15 31 -11 13 -20 27 -20 32 0 5 -12 8 -27 6 -21 -2 -33 -13
-46 -40 -23 -46 -35 -47 -67 -7 -31 37 -75 62 -99 54 -10 -3 -26 3 -39 15 -11
11 -29 20 -38 20 -10 0 -27 8 -38 17 -12 10 -18 14 -14 10 10 -13 -12 -67 -27
-67 -8 0 -21 10 -30 23 -12 17 -17 19 -24 8 -6 -9 -11 -10 -15 -2 -4 6 -2 11
5 11 9 0 9 3 0 14 -8 10 -9 16 -1 21 27 17 5 26 -62 23 -66 -2 -72 -4 -87 -30z"/>
<path d="M5008 1168 c-2 -13 0 -35 5 -50 6 -17 5 -39 -1 -57 -5 -15 -6 -34 -2
-41 6 -9 2 -19 -8 -27 -25 -18 -6 -16 23 3 15 10 25 12 25 5 0 -6 6 -11 14
-11 8 0 16 -6 19 -12 7 -19 29 40 34 92 5 44 4 46 -31 60 -20 7 -35 19 -35 24
3 27 -2 36 -20 36 -13 0 -21 -8 -23 -22z"/>
<path d="M80 1080 c0 -7 -7 -10 -15 -6 -8 3 -26 0 -40 -6 -24 -11 -25 -15 -25
-102 l0 -90 43 41 c44 44 100 73 139 73 13 0 43 13 67 29 l43 29 -38 5 c-22 3
-46 6 -54 6 -23 0 -95 17 -108 25 -7 4 -12 2 -12 -4z"/>
<path d="M4670 1026 c0 -8 -15 -27 -32 -42 -23 -19 -29 -29 -19 -32 7 -2 21
-13 29 -23 11 -13 30 -19 59 -19 44 0 58 -9 96 -65 16 -21 25 -26 55 -23 33 3
37 6 40 33 1 17 7 39 11 50 16 36 21 56 12 51 -5 -3 -21 6 -36 20 -18 16 -33
23 -44 18 -48 -20 -70 -17 -88 15 -14 25 -25 31 -50 31 -22 0 -33 -5 -33 -14z"/>
<path d="M734 881 c-17 -10 -45 -36 -62 -57 -29 -34 -30 -40 -17 -54 12 -11
36 -15 102 -13 56 2 95 -2 112 -11 31 -16 71 -5 71 19 0 9 -11 26 -25 39 -14
13 -25 27 -25 32 0 8 -107 65 -120 64 -3 0 -19 -9 -36 -19z"/>
<path d="M1854 803 c-3 -10 -14 -34 -25 -54 -20 -38 -24 -76 -11 -94 4 -5 40
-11 81 -12 48 -2 77 -7 83 -15 20 -32 -1 -93 -24 -70 -20 20 -42 14 -77 -23
-18 -19 -39 -35 -46 -35 -7 0 -15 -7 -18 -15 -5 -11 -12 -12 -37 -4 -37 13
-45 25 -30 43 8 11 5 19 -16 35 -25 20 -29 20 -43 6 -25 -24 -20 -86 8 -112
34 -32 65 -31 59 2 -5 26 -3 28 25 17 16 -7 16 -8 0 -32 -10 -14 -19 -44 -20
-67 -2 -40 0 -43 23 -43 30 0 56 -23 49 -42 -7 -16 21 -44 49 -49 51 -10 44
-65 -10 -84 -34 -11 -44 -23 -37 -42 3 -8 -2 -13 -15 -13 -30 0 -37 18 -16 41
11 12 13 19 5 19 -7 0 -19 16 -27 35 -13 31 -17 34 -34 25 -24 -13 -25 -19 -5
-47 15 -21 12 -45 -9 -72 -6 -8 -16 -34 -22 -58 l-11 -44 354 1 355 1 -6 25
c-4 13 -1 32 6 43 10 16 8 26 -15 58 -15 22 -27 44 -27 51 0 6 -16 22 -35 34
-40 26 -44 57 -9 72 14 6 24 26 33 62 6 30 18 65 26 80 7 15 11 32 9 39 -3 6
2 17 10 24 11 10 17 8 28 -8 13 -19 16 -17 73 35 62 55 88 66 99 38 12 -32 5
-49 -34 -85 -28 -25 -40 -45 -40 -64 0 -14 -12 -42 -26 -61 -25 -32 -26 -35
-10 -59 21 -32 39 -32 61 2 10 16 24 32 32 36 7 4 13 21 13 38 0 30 41 122 60
134 5 3 10 21 10 39 0 21 8 40 23 53 24 22 27 23 127 27 102 4 151 34 119 72
-9 11 -24 15 -50 11 -31 -4 -43 0 -68 22 -17 15 -34 38 -39 50 -8 23 -9 23
-41 -18 -18 -23 -29 -46 -25 -52 5 -9 11 -7 21 6 15 22 17 12 3 -16 -6 -10
-16 -19 -22 -19 -6 0 -21 -11 -34 -25 -19 -20 -33 -25 -73 -25 -28 0 -51 5
-53 11 -3 9 -9 9 -25 0 -25 -13 -54 -5 -47 14 9 22 -25 45 -67 45 l-40 0 14
-27 c16 -34 12 -61 -15 -90 -19 -20 -19 -23 -4 -29 10 -4 16 -18 16 -36 0 -30
0 -30 -42 -24 -23 4 -44 9 -47 12 -3 2 1 19 7 37 24 67 13 91 -46 100 -40 6
-37 4 -46 40 -4 16 -2 27 4 27 15 0 50 -33 50 -47 0 -21 17 -15 23 9 8 30 -10
58 -37 58 -13 0 -29 7 -36 16 -8 8 -22 20 -33 25 -26 14 -54 -12 -55 -51 -1
-41 -9 -50 -41 -50 -32 0 -51 16 -51 43 0 16 -3 17 -15 7 -28 -23 -95 6 -95
42 0 50 -63 92 -76 51z m157 -333 c20 -11 49 -70 49 -101 0 -19 55 -49 91 -49
20 0 38 -42 20 -48 -6 -2 -11 -13 -11 -25 0 -20 0 -20 14 -1 14 19 15 19 40
-5 34 -32 34 -59 -1 -67 -18 -5 -28 -3 -31 5 -2 7 -14 24 -26 38 l-23 26 -38
-46 c-46 -55 -68 -53 -59 5 5 31 1 51 -17 89 -13 27 -32 51 -42 55 -21 7 -46
53 -40 74 17 57 36 70 74 50z"/>
<path d="M304 438 c-3 -5 -21 -7 -39 -6 -46 3 -53 -7 -26 -36 15 -16 22 -36
23 -70 0 -29 6 -49 15 -54 18 -10 73 -3 73 10 0 5 14 22 31 37 28 26 30 33 24
70 -5 29 -13 42 -28 48 -30 10 -67 11 -73 1z"/>
<path d="M1691 311 c-8 -5 -20 -7 -26 -4 -7 2 -20 -3 -29 -12 -11 -12 -30 -16
-66 -14 -58 3 -64 -1 -64 -44 -1 -30 -3 -32 -38 -33 -42 0 -88 -35 -88 -65 0
-9 11 -24 25 -33 32 -21 31 -28 -4 -49 -21 -12 -41 -15 -73 -11 -40 6 -46 4
-61 -20 l-17 -26 154 0 155 0 3 28 c2 18 -4 34 -19 49 -26 25 -30 61 -8 69 8
4 15 12 15 20 0 8 7 14 15 14 8 0 15 -4 15 -10 0 -5 -4 -10 -9 -10 -13 0 0
-94 14 -102 7 -4 16 -19 19 -33 5 -20 13 -25 36 -25 31 0 41 16 16 26 -10 4
-14 22 -13 64 1 50 -2 61 -23 79 -21 17 -23 22 -10 31 8 5 28 10 44 10 l28 0
-23 20 c-21 17 -22 21 -9 30 8 5 32 10 53 10 30 0 37 4 37 19 0 10 -7 22 -16
25 -19 7 -16 8 -33 -3z"/>
<path d="M2455 96 c-11 -9 -14 -16 -7 -16 15 0 16 -52 0 -68 -9 -9 3 -12 54
-12 44 0 69 5 77 14 6 8 23 16 38 19 19 3 27 0 30 -14 3 -12 14 -19 29 -19 30
0 31 16 3 31 -14 7 -19 17 -16 29 7 25 -12 38 -43 30 -14 -3 -41 -2 -60 3 -70
18 -85 18 -105 3z"/>
</g>
</svg>
